Coordinates
version=1
nRows=7
nColumns=40
inDegrees=yes

Units are S.I. units (second, meters, Newtons, ...)
Angles are in degrees.

endheader
time	pelvis_tilt	pelvis_list	pelvis_rotation	pelvis_tx	pelvis_ty	pelvis_tz	hip_flexion_r	hip_adduction_r	hip_rotation_r	knee_angle_r	knee_angle_r_beta	ankle_angle_r	subtalar_angle_r	mtp_angle_r	hip_flexion_l	hip_adduction_l	hip_rotation_l	knee_angle_l	knee_angle_l_beta	ankle_angle_l	subtalar_angle_l	mtp_angle_l	lumbar_extension	lumbar_bending	lumbar_rotation	arm_flex_r	arm_add_r	arm_rot_r	elbow_flex_r	pro_sup_r	wrist_flex_r	wrist_dev_r	arm_flex_l	arm_add_l	arm_rot_l	elbow_flex_l	pro_sup_l	wrist_flex_l	wrist_dev_l
      2.44000000	     -2.17559906	     -0.73760619	     -1.70429262	      0.62508278	      0.87778852	     -0.98659582	     -2.76738660	      0.76150114	     -7.25038093	    -28.60209005	     -0.49920064	     13.85698002	     -1.71986283	     -2.88367001	     32.20475125	      5.50738224	     10.22401835	    -29.94975665	     -0.52272186	      2.53585439	     10.88206412	      7.88765710	     -3.19667480	     -1.13035311	      0.47882635	      3.93760180	     -9.65323716	    -10.48686018	     35.11710812	     89.95437384	      0.00000000	      0.00000000	     -5.54919419	      8.27041379	     18.65632080	     23.10015169	     89.95437384	      0.00000000	      0.00000000
      2.45000000	     -2.31992794	     -0.71079696	     -1.72465732	      0.63360635	      0.87798356	     -0.98834379	     -2.85087581	      0.58626638	     -7.05276746	    -29.15283756	     -0.50881300	     13.38488139	     -1.69460200	     -2.81615698	     32.05672884	      5.34591789	      9.95392020	    -30.34021010	     -0.52953656	      2.30033638	     10.59117749	      7.72051442	     -2.88138742	     -1.22592987	      0.40440765	      3.42156770	     -9.62853898	    -10.45553535	     35.11202464	     89.95437384	      0.00000000	      0.00000000	     -5.60202513	      8.31331283	     18.59541292	     23.43540871	     89.95437384	      0.00000000	      0.00000000
      2.46000000	     -2.35730327	     -0.24570474	     -1.90912681	      0.64124561	      0.87861637	     -0.99037647	     -2.51066097	     -0.15066336	     -6.75245717	    -30.55819193	     -0.53334106	     12.04928516	     -3.11192482	     -2.47458478	     31.76466416	      4.49254011	      9.29626024	    -30.63070770	     -0.53460670	      1.73022516	     12.90850406	      7.72849247	     -2.77314432	     -1.78230997	      0.52406871	      3.27343660	     -9.39310482	    -11.08256733	     34.61466957	     89.95437384	      0.00000000	      0.00000000	     -5.16377568	      8.38199117	     18.53797019	     23.17386055	     89.95437384	      0.00000000	      0.00000000
      2.47000000	     -2.31020597	     -0.25690031	     -1.87105790	      0.64961742	      0.87922802	     -0.99235357	     -2.50200167	     -0.32887329	     -6.65246979	    -31.61313076	     -0.55175322	     11.19325355	     -3.13731624	     -2.34445898	     31.45098965	      4.35371288	      9.11989186	    -31.16698059	     -0.54396643	      1.60276771	     12.69807980	      7.53636564	     -2.71673132	     -1.81583733	      0.36358724	      2.85621445	     -9.39155880	    -11.00720416	     34.55862402	     89.95437384	      0.00000000	      0.00000000	     -5.11124664	      8.42240502	     18.40781722	     23.48803836	     89.95437384	      0.00000000	      0.00000000
      2.48000000	     -2.35953938	     -0.03968862	     -1.95186280	      0.65782894	      0.87993906	     -0.99460585	     -2.10378903	     -0.85767686	     -6.67504419	    -33.03634304	     -0.57659296	      9.62122101	     -4.10066391	     -1.88931718	     31.06628227	      3.86829262	      8.94806759	    -31.37058605	     -0.54752001	      1.73093221	     13.75855420	      7.41945639	     -2.53981307	     -2.06240570	      0.41360367	      2.43664498	     -9.38994279	    -11.09378738	     34.33703385	     89.95437384	      0.00000000	      0.00000000	     -4.90117169	      8.44369371	     18.23162779	     23.62943336	     89.95437384	      0.00000000	      0.00000000
      2.49000000	     -2.34664705	     -0.04008047	     -1.92524493	      0.66622149	      0.88071158	     -0.99662574	     -1.72808673	     -1.13372822	     -6.88631594	    -34.56638307	     -0.60329720	      8.10832209	     -4.40733937	     -1.54683454	     30.65494812	      3.68539715	      8.87800328	    -31.67936860	     -0.55290929	      1.90469873	     13.83595841	      7.23429831	     -2.43153788	     -2.10258314	      0.27247327	      2.04309327	     -9.34727032	    -11.04493108	     34.08702507	     89.95437384	      0.00000000	      0.00000000	     -4.80535315	      8.48496833	     18.07680251	     23.92297690	     89.95437384	      0.00000000	      0.00000000
      2.50000000	     -2.35408314	     -0.04525178	     -1.89722528	      0.67434363	      0.88147175	     -0.99877964	     -1.10581066	     -1.43459636	     -7.13019437	    -36.35788959	     -0.63456488	      6.36117524	     -4.83843773	     -1.15719403	     30.22706501	      3.45117219	      8.66069408	    -31.89511578	     -0.55667479	      2.07377570	     13.80707049	      7.03989284	     -2.35038489	     -2.11011216	      0.14843831	      1.64512848	     -9.35867182	    -11.00533926	     33.93118709	     89.95437384	      0.00000000	      0.00000000	     -4.66650334	      8.51905887	     17.85782676	     24.24416313	     89.95437384	      0.00000000	      0.00000000
